<?xml version="1.0" standalone="no"?>
<!DOCTYPE svg PUBLIC "-//W3C//DTD SVG 20010904//EN"
 "http://www.w3.org/TR/2001/REC-SVG-20010904/DTD/svg10.dtd">
<svg version="1.0" xmlns="http://www.w3.org/2000/svg"
 width="100.000000pt" height="100.000000pt" viewBox="0 0 100.000000 100.000000"
 preserveAspectRatio="xMidYMid meet">

<g transform="translate(0.000000,100.000000) scale(0.100000,-0.100000)"
fill="#000000" stroke="none">
<path d="M125 910 c-4 -6 8 -53 25 -105 l32 -95 204 -183 c113 -100 208 -183
212 -185 5 -1 15 13 24 31 10 20 29 39 47 47 17 7 31 16 31 19 0 4 -83 100
-185 213 l-185 206 -92 31 c-105 35 -104 35 -113 21z"/>
<path d="M760 890 c-80 -28 -89 -34 -157 -107 -40 -43 -73 -80 -73 -83 0 -3
28 -35 63 -73 l62 -67 83 77 c80 76 83 81 112 168 30 90 32 116 8 114 -7 0
-51 -14 -98 -29z"/>
<path d="M321 469 c-13 -17 -21 -32 -19 -34 1 -1 17 -10 34 -18 17 -9 37 -30
44 -47 7 -16 15 -30 17 -30 3 0 20 13 39 29 l33 30 -55 50 c-31 28 -59 51 -63
51 -4 0 -17 -14 -30 -31z"/>
<path d="M135 440 c-19 -21 -18 -22 113 -153 l132 -132 21 21 21 21 -45 89
-45 89 -85 43 c-46 23 -86 42 -89 42 -3 0 -13 -9 -23 -20z"/>
<path d="M750 416 l-85 -44 -43 -88 -43 -87 20 -21 21 -21 132 132 c131 131
132 132 113 153 -10 11 -21 20 -24 19 -3 0 -44 -20 -91 -43z"/>
<path d="M143 249 c-14 -22 -41 -46 -59 -54 -38 -15 -52 -51 -35 -84 24 -43
95 -35 107 13 3 13 25 38 50 56 24 17 44 35 44 39 0 9 -63 71 -73 71 -4 0 -19
-18 -34 -41z"/>
<path d="M782 257 c-18 -18 -32 -36 -32 -39 0 -4 20 -21 44 -38 25 -18 47 -43
50 -56 12 -48 83 -56 107 -13 17 33 3 69 -35 84 -18 8 -45 32 -59 54 -15 23
-31 41 -35 41 -5 0 -22 -15 -40 -33z"/>
</g>
</svg>
