<?xml version="1.0" standalone="no"?>
<!DOCTYPE svg PUBLIC "-//W3C//DTD SVG 20010904//EN"
 "http://www.w3.org/TR/2001/REC-SVG-20010904/DTD/svg10.dtd">
<svg version="1.0" xmlns="http://www.w3.org/2000/svg"
 width="100.000000pt" height="100.000000pt" viewBox="0 0 100.000000 100.000000"
 preserveAspectRatio="xMidYMid meet">

<g transform="translate(0.000000,100.000000) scale(0.100000,-0.100000)"
fill="#000000" stroke="none">
<path d="M246 720 c-187 -208 -217 -246 -230 -291 -9 -29 -16 -68 -16 -88 0
-46 35 -116 71 -142 33 -23 483 -161 512 -157 10 2 105 108 211 236 l193 233
-1 77 c-1 76 -1 77 -28 80 -34 4 -50 -23 -50 -86 0 -45 -4 -51 -170 -252 -94
-113 -172 -206 -172 -207 -1 -1 -100 28 -221 63 -249 73 -265 83 -265 159 0
39 18 75 38 75 4 0 102 -27 217 -60 115 -33 215 -60 220 -60 11 0 432 481 441
503 12 33 -23 47 -270 102 -136 30 -252 55 -257 55 -4 0 -105 -108 -223 -240z
m497 19 c20 -5 37 -13 37 -17 0 -10 -49 -62 -59 -62 -22 0 -307 72 -314 80
-12 11 20 58 41 62 15 3 180 -32 295 -63z"/>
</g>
</svg>
