<?xml version="1.0" standalone="no"?>
<!DOCTYPE svg PUBLIC "-//W3C//DTD SVG 20010904//EN"
 "http://www.w3.org/TR/2001/REC-SVG-20010904/DTD/svg10.dtd">
<svg version="1.0" xmlns="http://www.w3.org/2000/svg"
 width="99.000000pt" height="99.000000pt" viewBox="0 0 99.000000 99.000000"
 preserveAspectRatio="xMidYMid meet">

<g transform="translate(0.000000,99.000000) scale(0.100000,-0.100000)"
fill="#000000" stroke="none">
<path d="M230 923 c-107 -35 -204 -73 -215 -84 -20 -20 -20 -20 73 -297 124
-369 114 -346 160 -339 20 4 49 9 63 13 25 5 30 0 64 -60 l37 -66 75 0 c66 0
81 3 109 25 18 14 35 25 38 25 3 0 6 -17 8 -37 3 -33 8 -39 65 -70 l62 -34
102 15 c58 8 106 21 111 28 4 7 7 60 6 118 l-3 104 -33 22 c-18 13 -37 24 -43
26 -6 2 9 97 37 232 44 222 45 229 27 247 -21 20 -421 104 -452 94 -14 -4 -21
3 -31 36 -12 35 -43 71 -60 68 -3 0 -93 -30 -200 -66z m230 -30 c12 -32 24
-71 27 -88 2 -16 -12 -106 -32 -200 -20 -93 -38 -183 -42 -198 -4 -18 -23 -41
-52 -63 -28 -22 -48 -46 -51 -62 -6 -32 -66 -55 -81 -31 -14 23 -192 560 -187
565 7 6 371 133 385 133 6 1 21 -25 33 -56z m290 -82 c106 -22 194 -41 196
-44 2 -2 -15 -99 -38 -215 -33 -165 -46 -212 -58 -212 -8 0 -21 9 -28 20 -17
28 -38 25 -64 -10 -31 -43 -69 -41 -90 4 l-17 34 39 17 c78 35 128 105 103
144 -16 25 -53 40 -77 31 -15 -5 -28 -2 -45 11 -30 24 -56 24 -81 -1 -28 -28
-26 -79 5 -124 l24 -36 -65 0 c-36 0 -74 -5 -85 -10 -13 -7 -19 -7 -19 0 0 13
79 401 85 418 6 16 -2 17 215 -27z m-170 -405 c0 -7 -122 -92 -141 -99 -9 -3
-31 -2 -49 2 l-34 7 65 46 c54 40 71 47 112 48 26 0 47 -2 47 -4z m61 -47 c15
-30 18 -44 10 -52 -6 -6 -11 -39 -11 -73 0 -59 -2 -63 -36 -89 -20 -15 -39
-23 -44 -19 -22 23 -91 166 -84 173 13 12 137 101 141 101 1 0 12 -19 24 -41z
m245 -61 c24 -12 44 -25 44 -30 0 -12 -14 -10 -28 4 -10 10 -15 10 -21 -1 -6
-8 -16 -11 -27 -7 -10 4 -21 1 -25 -6 -7 -10 -12 -10 -28 -1 -15 10 -20 10
-24 0 -2 -8 -15 -6 -45 8 -23 11 -42 23 -42 28 0 11 28 9 35 -3 4 -6 12 -4 22
6 13 13 18 13 24 2 8 -11 11 -11 18 1 5 8 16 11 31 6 15 -5 20 -4 16 4 -10 16
2 14 50 -11z m-506 -58 c0 -5 -4 -10 -10 -10 -5 0 -10 5 -10 10 0 6 5 10 10
10 6 0 10 -4 10 -10z m588 -87 c3 -106 3 -106 -93 -117 -33 -4 -68 -10 -78
-12 -16 -5 -17 3 -15 98 l3 103 75 11 c111 17 105 22 108 -83z m-288 71 c0 -8
-4 -12 -10 -9 -5 3 -10 10 -10 16 0 5 5 9 10 9 6 0 10 -7 10 -16z m30 -74 c0
-5 -2 -10 -4 -10 -3 0 -8 5 -11 10 -3 6 -1 10 4 10 6 0 11 -4 11 -10z m-205
-10 c3 -5 2 -10 -4 -10 -5 0 -13 5 -16 10 -3 6 -2 10 4 10 5 0 13 -4 16 -10z
m175 -36 c0 -8 -4 -12 -10 -9 -5 3 -10 10 -10 16 0 5 5 9 10 9 6 0 10 -7 10
-16z m57 -36 c-3 -8 -6 -5 -6 6 -1 11 2 17 5 13 3 -3 4 -12 1 -19z"/>
<path d="M110 758 c1 -35 3 -40 11 -25 7 12 17 16 31 11 19 -6 19 -5 -3 25
-31 42 -39 39 -39 -11z m25 12 c3 -5 1 -10 -4 -10 -6 0 -11 5 -11 10 0 6 2 10
4 10 3 0 8 -4 11 -10z"/>
<path d="M140 681 c0 -10 6 -24 14 -30 12 -10 16 -8 21 10 5 14 2 25 -6 30
-21 13 -29 11 -29 -10z"/>
<path d="M282 638 l-10 -63 46 -47 c25 -27 49 -48 52 -48 4 0 12 30 19 68 l13
67 -48 43 c-27 23 -51 42 -55 42 -3 0 -11 -28 -17 -62z"/>
<path d="M572 766 c-12 -20 -17 -36 -12 -36 4 0 11 6 14 13 3 8 9 6 20 -7 15
-19 16 -19 16 10 0 52 -15 59 -38 20z"/>
<path d="M534 696 c-3 -9 1 -27 10 -41 13 -20 21 -23 35 -16 49 26 46 54 -7
66 -24 5 -33 3 -38 -9z"/>
<path d="M460 360 c-13 -8 -12 -10 3 -10 9 0 17 5 17 10 0 12 -1 12 -20 0z"/>
<path d="M595 350 c-7 -12 2 -30 16 -30 12 0 12 27 0 35 -5 3 -12 1 -16 -5z"/>
<path d="M512 278 c6 -18 28 -21 28 -4 0 9 -7 16 -16 16 -9 0 -14 -5 -12 -12z"/>
<path d="M565 181 c-7 -12 12 -24 25 -16 11 7 4 25 -10 25 -5 0 -11 -4 -15 -9z"/>
<path d="M805 280 c3 -5 8 -10 11 -10 2 0 4 5 4 10 0 6 -5 10 -11 10 -5 0 -7
-4 -4 -10z"/>
<path d="M912 198 c6 -18 28 -21 28 -4 0 9 -7 16 -16 16 -9 0 -14 -5 -12 -12z"/>
<path d="M867 143 c-12 -11 -8 -23 8 -23 8 0 15 7 15 15 0 16 -12 20 -23 8z"/>
<path d="M810 65 c0 -8 7 -15 15 -15 8 0 15 7 15 15 0 8 -7 15 -15 15 -8 0
-15 -7 -15 -15z"/>
</g>
</svg>
