<?xml version="1.0" standalone="no"?>
<!DOCTYPE svg PUBLIC "-//W3C//DTD SVG 20010904//EN"
 "http://www.w3.org/TR/2001/REC-SVG-20010904/DTD/svg10.dtd">
<svg version="1.0" xmlns="http://www.w3.org/2000/svg"
 width="105.000000pt" height="98.000000pt" viewBox="0 0 105.000000 98.000000"
 preserveAspectRatio="xMidYMid meet">

<g transform="translate(0.000000,98.000000) scale(0.100000,-0.100000)"
fill="#000000" stroke="none">
<path d="M16 964 c-9 -8 -16 -21 -16 -27 0 -28 30 -118 67 -207 32 -78 38
-101 30 -120 -5 -14 -10 -82 -11 -152 l-1 -126 -43 -27 c-47 -30 -46 -29 -32
-56 14 -25 42 -24 65 1 24 27 32 25 51 -12 15 -29 15 -32 -1 -44 -36 -26 -85
-75 -85 -84 0 -5 8 -14 18 -19 14 -7 33 -2 77 20 32 16 61 26 64 22 15 -20 87
-67 137 -89 124 -55 254 -55 379 1 50 22 121 68 136 88 3 4 32 -6 64 -22 44
-22 63 -27 77 -20 10 5 18 14 18 19 0 9 -49 58 -85 84 -16 12 -16 15 -1 44 19
37 27 39 51 12 23 -25 51 -26 65 -1 14 27 15 26 -32 56 l-43 27 -1 126 c-1 70
-6 138 -11 152 -8 20 -2 43 32 125 90 216 82 263 -38 234 -54 -12 -141 -52
-151 -68 -10 -16 -68 -41 -79 -34 -16 10 -149 33 -192 33 -44 0 -176 -23 -194
-34 -6 -4 -32 7 -57 23 -64 44 -102 62 -159 77 -65 18 -80 17 -99 -2z m384
-392 c29 -36 25 -66 -12 -97 -25 -21 -38 -25 -62 -21 -48 10 -67 34 -64 80 3
35 8 43 35 57 41 20 78 14 103 -19z m377 6 c20 -16 16 -82 -5 -101 -34 -31
-75 -32 -110 -2 -37 31 -41 61 -12 98 30 37 86 40 127 5z m-179 -170 c7 -7 12
-16 12 -20 0 -14 -72 -88 -85 -88 -13 0 -85 74 -85 88 0 21 29 32 85 32 34 0
66 -5 73 -12z"/>
</g>
</svg>
