<?xml version="1.0" standalone="no"?>
<!DOCTYPE svg PUBLIC "-//W3C//DTD SVG 20010904//EN"
 "http://www.w3.org/TR/2001/REC-SVG-20010904/DTD/svg10.dtd">
<svg version="1.0" xmlns="http://www.w3.org/2000/svg"
 width="1000.000000pt" height="1000.000000pt" viewBox="0 0 1000.000000 1000.000000"
 preserveAspectRatio="xMidYMid meet">
<metadata>
Created by potrace 1.16, written by Peter Selinger 2001-2019
</metadata>
<g transform="translate(0.000000,1000.000000) scale(0.100000,-0.100000)"
fill="#000000" stroke="none">
<path d="M8375 9059 c-70 -16 -256 -79 -365 -124 -948 -388 -2089 -1306 -3251
-2615 -554 -624 -1233 -1500 -1757 -2267 -55 -80 -81 -111 -92 -107 -108 42
-369 43 -495 4 -391 -124 -637 -494 -593 -895 14 -136 63 -267 148 -401 12
-19 4 -34 -77 -165 -50 -79 -119 -191 -155 -249 -36 -58 -162 -260 -280 -450
-118 -190 -245 -394 -282 -454 -81 -131 -95 -175 -76 -239 17 -62 56 -99 183
-176 114 -68 167 -83 229 -62 53 18 88 58 194 229 120 193 419 675 618 996
148 237 148 238 179 232 198 -40 434 8 611 124 144 94 267 246 327 405 l32 85
331 0 331 -1 25 -40 c50 -81 178 -140 273 -125 284 46 350 415 98 543 -124 64
-261 38 -351 -64 -22 -25 -40 -52 -40 -59 0 -12 -57 -14 -319 -14 l-319 0 -6
28 c-3 15 -8 52 -12 82 -3 30 -16 86 -29 123 l-22 68 67 39 c178 104 418 298
600 486 451 466 732 1021 865 1709 5 29 8 30 48 27 35 -3 46 1 67 22 33 36 33
88 -2 123 l-26 26 86 44 c484 249 902 581 1159 918 124 164 242 383 303 562
l34 101 24 -19 c38 -30 85 -25 116 12 31 37 33 63 6 107 -11 18 -20 34 -20 36
0 2 25 6 56 10 31 3 104 18 162 31 405 95 737 244 1029 461 146 109 374 354
448 482 23 38 28 39 43 8 16 -35 73 -52 111 -33 27 14 30 13 37 -7 4 -11 9
-533 11 -1158 l4 -1138 -39 0 c-40 0 -40 0 -50 -47 -6 -27 -27 -128 -47 -226
l-37 -178 25 -67 c74 -198 65 -182 103 -182 l34 0 0 -191 c0 -111 -4 -198 -10
-210 -13 -23 -61 -49 -90 -49 -54 0 -100 51 -100 110 0 28 1 29 31 18 16 -6
33 -8 36 -5 3 3 -28 61 -68 129 l-74 122 -3 -142 c-3 -156 5 -203 41 -244 60
-69 162 -83 239 -33 70 46 78 77 78 300 l0 195 44 0 43 0 47 124 46 124 -45
220 c-25 121 -45 222 -45 226 0 3 -15 6 -32 6 l-33 0 -1 1118 c0 1207 -1 1233
-54 1375 -23 60 -69 107 -107 107 -15 0 -27 16 -48 65 -15 36 -36 70 -46 75
-21 12 -69 11 -124 -1z m45 -220 c17 -30 7 -55 -56 -150 -71 -106 -109 -153
-209 -257 -316 -331 -827 -576 -1387 -665 l-83 -13 -23 27 -22 27 147 120
c546 441 1026 726 1513 898 52 18 98 34 102 34 4 0 12 -9 18 -21z m-1882
-1180 c19 -31 19 -31 -5 -116 -86 -307 -254 -580 -521 -850 -242 -245 -584
-489 -927 -661 -116 -58 -121 -59 -142 -43 -21 18 -21 18 70 127 274 329 569
662 791 892 254 263 688 681 708 682 3 0 15 -14 26 -31z m-1658 -1859 c0 -28
-37 -209 -65 -321 -85 -333 -229 -664 -413 -948 -236 -363 -579 -703 -925
-917 -49 -31 -90 -54 -91 -52 -2 2 -18 26 -36 53 -18 28 -45 64 -60 80 l-28
30 50 75 c486 727 976 1407 1399 1942 l101 128 34 -26 c19 -15 34 -35 34 -44z"/>
</g>
</svg>
