<?xml version="1.0" standalone="no"?>
<!DOCTYPE svg PUBLIC "-//W3C//DTD SVG 20010904//EN"
 "http://www.w3.org/TR/2001/REC-SVG-20010904/DTD/svg10.dtd">
<svg version="1.0" xmlns="http://www.w3.org/2000/svg"
 width="111.000000pt" height="92.000000pt" viewBox="0 0 111.000000 92.000000"
 preserveAspectRatio="xMidYMid meet">

<g transform="translate(0.000000,92.000000) scale(0.100000,-0.100000)"
fill="#000000" stroke="none">
<path d="M324 895 c-28 -14 -60 -35 -71 -48 -88 -95 -83 -254 9 -332 17 -14
29 -27 27 -29 -2 -1 -25 -13 -51 -25 -61 -29 -128 -89 -168 -151 -65 -102 -91
-249 -50 -290 19 -19 33 -20 396 -20 221 0 383 4 393 10 34 18 44 62 31 137
-22 128 -114 253 -229 310 -31 15 -58 29 -60 30 -2 1 13 16 33 34 54 47 70 83
70 164 1 59 -3 77 -26 116 -63 107 -195 148 -304 94z"/>
<path d="M720 821 c-12 -9 -12 -15 3 -46 38 -79 31 -210 -13 -250 -19 -18 -19
-18 33 -69 84 -81 176 -228 191 -305 9 -51 23 -61 78 -61 39 0 54 5 75 26 23
23 25 31 20 83 -10 116 -104 249 -202 286 l-46 18 20 21 c100 107 39 275 -109
300 -19 4 -42 2 -50 -3z"/>
</g>
</svg>
