<?xml version="1.0" standalone="no"?>
<!DOCTYPE svg PUBLIC "-//W3C//DTD SVG 20010904//EN"
 "http://www.w3.org/TR/2001/REC-SVG-20010904/DTD/svg10.dtd">
<svg version="1.0" xmlns="http://www.w3.org/2000/svg"
 width="96.000000pt" height="96.000000pt" viewBox="0 0 96.000000 96.000000"
 preserveAspectRatio="xMidYMid meet">

<g transform="translate(0.000000,96.000000) scale(0.100000,-0.100000)"
fill="#000000" stroke="none">
<path d="M395 950 c-129 -19 -236 -72 -258 -128 -5 -15 -29 -39 -52 -54 -24
-14 -51 -38 -60 -52 -20 -30 -30 -94 -21 -130 8 -31 52 -84 90 -107 32 -20 30
-11 36 -169 1 -14 -2 -48 -5 -75 -9 -67 11 -115 66 -154 151 -110 476 -99 602
19 34 31 40 44 44 87 3 28 0 67 -7 87 -14 43 -6 60 46 96 103 70 114 188 24
263 -16 14 -39 28 -49 32 -17 5 -19 12 -14 55 7 63 -1 92 -37 134 -37 42 -111
74 -210 92 -82 15 -119 15 -195 4z m245 -47 c99 -27 170 -80 170 -126 0 -31
-70 -92 -135 -117 -52 -21 -77 -24 -195 -24 -118 0 -143 3 -195 24 -34 13 -77
40 -99 61 -32 32 -37 43 -32 66 25 109 286 171 486 116z m-516 -192 c15 -98
162 -169 351 -171 55 -1 65 -3 46 -11 -42 -17 -193 -22 -267 -10 -149 26 -245
100 -213 164 11 22 58 67 70 67 4 0 9 -18 13 -39z m780 -120 c8 -9 17 -28 21
-42 19 -76 -150 -159 -324 -159 -67 0 -183 19 -176 30 2 4 26 10 52 13 102 12
196 62 226 120 8 15 36 42 63 61 l49 34 38 -21 c20 -12 44 -28 51 -36z m-679
-157 c17 -4 50 -24 74 -46 55 -48 146 -77 265 -85 129 -9 77 -26 -79 -27 -100
0 -131 4 -185 23 -69 24 -123 59 -140 92 -15 27 -3 61 18 55 9 -3 31 -8 47
-12z m16 -202 c139 -68 344 -67 484 2 38 19 73 32 77 30 15 -10 8 -43 -17 -72
-59 -71 -236 -113 -387 -93 -139 18 -261 94 -243 150 4 12 10 21 13 19 4 -2
37 -18 73 -36z"/>
<path d="M450 885 c0 -9 -9 -15 -24 -15 -34 0 -84 -19 -90 -36 -15 -38 16 -56
127 -74 49 -8 77 -17 77 -25 0 -29 -55 -32 -121 -9 -30 11 -56 14 -75 10 l-29
-8 23 -18 c13 -11 43 -22 67 -26 29 -4 45 -11 45 -20 0 -9 11 -14 30 -14 19 0
30 5 30 14 0 9 16 16 44 20 59 9 100 40 86 66 -12 22 -49 35 -143 51 -42 7
-67 16 -64 23 5 16 66 20 108 6 26 -9 45 -9 65 -2 l29 10 -37 16 c-21 9 -49
16 -63 16 -16 0 -25 6 -25 15 0 10 -10 15 -30 15 -20 0 -30 -5 -30 -15z"/>
</g>
</svg>
